<?xml version="1.0" standalone="no"?><!DOCTYPE svg PUBLIC "-//W3C//DTD SVG 1.1//EN" "http://www.w3.org/Graphics/SVG/1.1/DTD/svg11.dtd"><svg t="1657767532013" class="icon" viewBox="0 0 1024 1024" version="1.1" xmlns="http://www.w3.org/2000/svg" p-id="6090" xmlns:xlink="http://www.w3.org/1999/xlink" width="64" height="64"><defs><style type="text/css">@font-face { font-family: feedback-iconfont; src: url("//at.alicdn.com/t/font_1031158_u69w8yhxdu.woff2?t=1630033759944") format("woff2"), url("//at.alicdn.com/t/font_1031158_u69w8yhxdu.woff?t=1630033759944") format("woff"), url("//at.alicdn.com/t/font_1031158_u69w8yhxdu.ttf?t=1630033759944") format("truetype"); }
</style></defs><path d="M0 0h1024v1024H0V0z" fill="#202425" opacity=".01" p-id="6091"></path><path d="M955.733333 443.733333c0 226.2016-183.3984 409.6-409.6 409.6S136.533333 669.934933 136.533333 443.733333 319.931733 34.133333 546.133333 34.133333s409.6 183.3984 409.6 409.6z" fill="#FFAA44" p-id="6092"></path><path d="M703.829333 212.309333l3.1744 2.901334 3.140267 3.208533a34.133333 34.133333 0 0 1 2.730667 44.305067l-2.730667 3.1744-73.352533 75.776h47.342933a34.133333 34.133333 0 1 1 0 68.266666h-102.434133v68.266667h102.4a34.133333 34.133333 0 1 1 0 68.266667h-102.4v68.266666a34.133333 34.133333 0 1 1-68.266667 0v-68.266666h-102.4a34.133333 34.133333 0 0 1 0-68.266667h102.4v-68.266667h-102.4a34.133333 34.133333 0 0 1 0-68.266666h47.342933l-73.3184-75.776a34.133333 34.133333 0 0 1 0-47.445334l3.140267-3.242666a34.133333 34.133333 0 0 1 48.264533-0.8192l111.138134 114.824533 111.138133-114.824533a34.133333 34.133333 0 0 1 45.090133-2.082134z" fill="#FFFFFF" p-id="6093"></path><path d="M34.133333 716.8a34.133333 34.133333 0 0 1 34.133334-34.133333h204.8a34.133333 34.133333 0 0 1 34.133333 34.133333v238.933333a34.133333 34.133333 0 0 1-34.133333 34.133334H68.266667a34.133333 34.133333 0 0 1-34.133334-34.133334v-238.933333z" fill="#FFAA44" p-id="6094"></path><path d="M204.8 989.866667a34.133333 34.133333 0 0 1-34.133333-34.133334v-258.935466a34.133333 34.133333 0 0 1 10.001066-24.132267l48.264534-48.264533A34.133333 34.133333 0 0 1 253.064533 614.4H597.333333a85.333333 85.333333 0 0 1 0 170.666667h-170.666666a17.066667 17.066667 0 0 0 0 34.133333h198.007466l260.676267-77.380267a85.333333 85.333333 0 1 1 44.168533 164.864l-268.834133 78.404267c-12.219733 3.2768-21.2992 4.8128-43.349333 4.8128H204.8z" fill="#11AA66" p-id="6095"></path></svg>